HIERARCHY
ROOT Hips
{
	OFFSET -0.001795 -0.223333 0.028219
	CHANNELS 6 Xposition Yposition Zposition Zrotation Yrotation Xrotation 
	JOINT LeftUpLeg
	{
		OFFSET 0.069520 -0.091406 -0.006815
		CHANNELS 3 Zrotation Yrotation Xrotation
		JOINT LeftLeg
		{
			OFFSET 0.034277 -0.375199 -0.004496
			CHANNELS 3 Zrotation Yrotation Xrotation
			JOINT LeftFoot
			{
				OFFSET -0.013596 -0.397961 -0.043693
				CHANNELS 3 Zrotation Yrotation Xrotation
				JOINT LeftToe
				{
					OFFSET 0.026358 -0.055791 0.119288
					CHANNELS 3 Zrotation Yrotation Xrotation
					End Site
					{
						OFFSET 0.000000 0.000000 0.000000
					}
				}
			}
		}
	}
	JOINT RightUpLeg
	{
		OFFSET -0.067670 -0.090522 -0.004320
		CHANNELS 3 Zrotation Yrotation Xrotation
		JOINT RightLeg
		{
			OFFSET -0.038290 -0.382569 -0.008850
			CHANNELS 3 Zrotation Yrotation Xrotation
			JOINT RightFoot
			{
				OFFSET 0.015774 -0.398415 -0.042312
				CHANNELS 3 Zrotation Yrotation Xrotation
				JOINT RightToe
				{
					OFFSET -0.025372 -0.048144 0.123348
					CHANNELS 3 Zrotation Yrotation Xrotation
					End Site
					{
						OFFSET 0.000000 0.000000 0.000000
					}
				}
			}
		}
	}
	JOINT Spine
	{
		OFFSET -0.002533 0.108963 -0.026696
		CHANNELS 3 Zrotation Yrotation Xrotation
		JOINT Spine1
		{
			OFFSET 0.005487 0.135180 0.001092
			CHANNELS 3 Zrotation Yrotation Xrotation
			JOINT Spine2
			{
				OFFSET 0.001457 0.052922 0.025425
				CHANNELS 3 Zrotation Yrotation Xrotation
				JOINT Neck
				{
					OFFSET -0.002778 0.213870 -0.042857
					CHANNELS 3 Zrotation Yrotation Xrotation
					JOINT Head
					{
						OFFSET 0.005152 0.064970 0.051349
						CHANNELS 3 Zrotation Yrotation Xrotation
						End Site
						{
							OFFSET 0.000000 0.000000 0.000000
						}
					}
				}
				JOINT LeftShoulder
				{
					OFFSET 0.078845 0.121749 -0.034090
					CHANNELS 3 Zrotation Yrotation Xrotation
					JOINT LeftArm
					{
						OFFSET 0.090977 0.030469 -0.008868
						CHANNELS 3 Zrotation Yrotation Xrotation
						JOINT LeftForeArm
						{
							OFFSET 0.259612 -0.012772 -0.027456
							CHANNELS 3 Zrotation Yrotation Xrotation
							JOINT LeftHand
							{
								OFFSET 0.249234 0.008986 -0.001171
								CHANNELS 3 Zrotation Yrotation Xrotation
								End Site
								{
									OFFSET 0.000000 0.000000 0.000000
								}
							}
						}
					}
				}
				JOINT RightShoulder
				{
					OFFSET -0.081759 0.118833 -0.038615
					CHANNELS 3 Zrotation Yrotation Xrotation
					JOINT RightArm
					{
						OFFSET -0.096012 0.032551 -0.009143
						CHANNELS 3 Zrotation Yrotation Xrotation
						JOINT RightForeArm
						{
							OFFSET -0.253742 -0.013329 -0.021401
							CHANNELS 3 Zrotation Yrotation Xrotation
							JOINT RightHand
							{
								OFFSET -0.255298 0.007772 -0.005559
								CHANNELS 3 Zrotation Yrotation Xrotation
								End Site
								{
									OFFSET 0.000000 0.000000 0.000000
								}
							}
						}
					}
				}
			}
		}
	}
}
MOTION
Frames: 7
Frame Time: 0.050000
-0.099183 0.913404 -0.169720 -1.031836 -18.673870 16.887110 17.360786 4.764714 -34.864180 -3.645362 1.683085 22.896495 5.096141 10.906573 13.206621 0.000000 0.000000 0.000000 -6.809398 5.279991 -43.407279 0.737444 2.817536 32.596350 0.917990 0.229897 2.676611 0.000000 0.000000 0.000000 1.861220 -0.188724 30.370291 4.272590 -1.691460 -3.156312 -8.397397 3.688379 7.412380 15.633387 -5.406251 -29.474766 0.000000 0.000000 0.000000 -8.323436 -24.790761 11.076759 -36.527347 -31.256926 4.409521 7.249248 -65.937974 -0.300935 0.000000 0.000000 0.000000 11.265535 13.908481 5.134065 46.406892 23.196654 3.966521 38.044004 74.833538 31.980056 0.000000 0.000000 0.000000 
-0.110867 0.913829 -0.179030 -0.668994 -18.235266 16.711457 17.984951 4.746016 -34.112014 -3.664057 1.533321 21.403020 5.117767 11.053539 14.754523 0.000000 0.000000 0.000000 -6.421041 5.275212 -43.219123 1.053425 2.648148 32.513160 0.431489 -0.485298 1.908606 0.000000 0.000000 0.000000 2.372538 -0.431518 29.701669 3.975996 -1.572589 -3.302204 -8.282914 3.303458 7.543195 15.103769 -5.183477 -29.575812 0.000000 0.000000 0.000000 -8.441497 -23.834946 10.694417 -36.978416 -30.216353 4.157600 8.202827 -68.339875 -0.841853 0.000000 0.000000 0.000000 11.736165 13.475983 4.865711 46.715390 22.868274 3.887927 43.960082 75.041783 36.758759 0.000000 0.000000 0.000000 
-0.122252 0.913959 -0.188126 -0.193570 -17.945934 16.600270 18.369623 4.791140 -33.962960 -3.592631 1.434104 20.739101 4.892254 10.834214 16.286319 0.000000 0.000000 0.000000 -6.359525 5.266478 -43.385409 1.657152 2.441529 32.965334 -0.330277 -2.020084 1.177208 0.000000 0.000000 0.000000 2.583197 -0.562799 28.722954 3.603692 -1.416343 -3.859508 -7.924692 3.501401 8.507222 14.315770 -4.661002 -30.668712 0.000000 0.000000 0.000000 -8.333239 -22.818697 10.180460 -36.907632 -29.348446 3.811029 10.651492 -71.355939 -2.584854 0.000000 0.000000 0.000000 11.891378 13.058620 4.687747 46.610265 22.699785 3.724141 47.360299 75.259079 39.767199 0.000000 0.000000 0.000000 
-0.133006 0.913822 -0.196958 0.072351 -17.246766 16.412377 18.849954 4.812488 -33.894173 -3.713130 1.395160 20.278402 4.711899 10.686689 16.682759 0.000000 0.000000 0.000000 -6.221761 5.195277 -43.442327 2.362182 2.118816 33.144036 -0.852869 -3.169388 0.799921 0.000000 0.000000 0.000000 3.235478 -0.848859 27.935951 3.326704 -1.315249 -3.508045 -7.730689 3.567129 8.072623 13.707634 -4.419378 -30.268944 0.000000 0.000000 0.000000 -9.033018 -22.039719 9.873002 -36.364874 -27.760459 3.238736 10.760952 -74.439021 -2.908601 0.000000 0.000000 0.000000 12.073013 12.946998 4.693280 46.098280 21.782113 3.365580 53.392850 75.472015 45.039106 0.000000 0.000000 0.000000 
-0.142503 0.913449 -0.205253 0.632648 -16.532196 16.145102 18.920106 4.781447 -34.319911 -3.832846 1.449695 21.096474 4.498192 10.521658 17.098598 0.000000 0.000000 0.000000 -6.158190 5.095393 -43.475397 2.892843 1.888398 33.604017 -1.304023 -3.905916 0.077959 0.000000 0.000000 0.000000 3.936533 -1.120430 27.560773 2.906013 -1.133646 -4.488273 -7.432730 4.448946 9.128277 13.349101 -4.001358 -31.394424 0.000000 0.000000 0.000000 -8.984491 -22.055781 9.701127 -36.398237 -27.181182 3.007880 9.972162 -76.227673 -2.642643 0.000000 0.000000 0.000000 11.555465 12.616301 4.738596 45.756339 22.289537 3.395556 51.682278 75.678298 44.232801 0.000000 0.000000 0.000000 
-0.149798 0.913244 -0.212537 1.154763 -15.686099 15.650202 18.682824 4.578776 -34.542567 -3.844274 1.458328 21.912078 4.076003 10.009394 16.862659 0.000000 0.000000 0.000000 -6.087113 4.915647 -43.145549 3.475279 1.569243 33.512663 -1.896857 -5.478939 0.030963 0.000000 0.000000 0.000000 4.391972 -1.317329 27.121029 2.704236 -1.060152 -4.261996 -7.250590 5.109979 8.926234 12.913762 -3.548162 -32.183721 0.000000 0.000000 0.000000 -9.959332 -21.924603 9.598291 -36.182299 -26.079763 2.655642 8.048470 -76.950074 -1.506049 0.000000 0.000000 0.000000 11.208481 12.355661 4.798852 44.956864 22.548526 3.394850 48.649932 75.296369 41.817303 0.000000 0.000000 0.000000 
-0.153887 0.913515 -0.218940 1.626132 -15.153895 15.368654 18.422589 4.429162 -34.790067 -4.150050 1.612555 23.033145 4.074630 10.048671 16.307111 0.000000 0.000000 0.000000 -6.240676 4.766615 -43.072000 3.803625 1.388023 33.565293 -2.249851 -6.353554 -0.061383 0.000000 0.000000 0.000000 4.996594 -1.526170 26.797280 2.183017 -0.847494 -4.787245 -6.822738 6.221855 9.574590 12.465424 -3.064001 -33.289359 0.000000 0.000000 0.000000 -10.865600 -22.396164 9.740228 -36.352239 -25.563646 2.500284 6.628901 -76.684898 -0.747993 0.000000 0.000000 0.000000 10.937087 12.757175 5.211583 43.790044 23.010070 3.343686 40.677855 75.528117 35.880286 0.000000 0.000000 0.000000 
